<svg xmlns="http://www.w3.org/2000/svg" width="48" height="48.001" viewBox="0 0 48 48.001">
  <g>
    <path d="M24,8.865a4.433,4.433,0,1,0-4.433-4.433A4.438,4.438,0,0,0,24,8.865Zm0-7.41a2.978,2.978,0,1,1-2.979,2.978A2.981,2.981,0,0,1,24,1.455Z" fill="#1a171b"/>
    <path d="M38.574,25.548a2.8,2.8,0,0,0,1.067-1.314,2.88,2.88,0,0,0-1.523-3.65l-4.263-2.172a5.9,5.9,0,0,1-2.52-2.463l-1.288-2.387a6.539,6.539,0,0,0-5.761-3.438H21.343A5.448,5.448,0,0,0,15.9,15.568v3.939a58.359,58.359,0,0,1-2.428,16.662l-2.267,7.607A3.287,3.287,0,0,0,14.356,48a3.162,3.162,0,0,0,3.033-2.3l3.445-12.24L24.28,45.7A3.162,3.162,0,0,0,27.313,48h.83A2.668,2.668,0,0,0,30.7,44.571L27.057,32.344A31,31,0,0,1,25.768,23.5V19.57a13.137,13.137,0,0,0,4.314,3.373l3.945,1.93a4.6,4.6,0,0,0-2.9,4.27.728.728,0,1,0,1.455,0,3.151,3.151,0,0,1,6.3,0V47.272a.728.728,0,1,0,1.456,0V29.143A4.578,4.578,0,0,0,38.574,25.548Zm-.284-1.855a1.367,1.367,0,0,1-.769.77,1.351,1.351,0,0,1-1.068-.021l-5.73-2.8a11.688,11.688,0,0,1-3.861-3.027h0L25.6,17.1a.727.727,0,0,0-1.285.467V23.5a32.409,32.409,0,0,0,1.35,9.262L29.306,44.99a1.213,1.213,0,0,1-1.162,1.558h-.83A1.7,1.7,0,0,1,25.68,45.31L21.535,30.583a.728.728,0,0,0-1.4,0L15.988,45.31a1.7,1.7,0,0,1-1.633,1.238A1.832,1.832,0,0,1,12.6,44.2l2.267-7.609A59.809,59.809,0,0,0,17.354,19.51V15.571a3.992,3.992,0,0,1,3.988-3.99h2.943a5.081,5.081,0,0,1,4.48,2.675l1.288,2.387a7.322,7.322,0,0,0,3.14,3.066L37.481,21.9A1.448,1.448,0,0,1,38.29,23.693Z" fill="#1a171b"/>
    <path d="M1.453,24A22.443,22.443,0,0,1,17.294,2.467a.727.727,0,0,0-.431-1.389,24.007,24.007,0,0,0-8.638,41.01.734.734,0,0,0,.479.178.727.727,0,0,0,.479-1.275A22.538,22.538,0,0,1,1.453,24Z" fill="#1a171b"/>
    <path d="M31.2,1.1a.728.728,0,0,0-.435,1.389A22.555,22.555,0,0,1,42.474,36.925a.728.728,0,0,0,.178,1.014.715.715,0,0,0,.417.131.726.726,0,0,0,.6-.309A24.01,24.01,0,0,0,31.2,1.1Z" fill="#1a171b"/>
  </g>
</svg>
