<svg xmlns="http://www.w3.org/2000/svg" viewBox="0 0 48 48"><title>Kidneys</title><g id="Kidneys"><path d="M35,11a6,6,0,0,0-4.38,10.09A11.13,11.13,0,0,0,27,22.21V1a1,1,0,0,0-2,0V23.54C22.38,25.71,23,27.79,23,1a1,1,0,0,0-2,0V22.62a12,12,0,0,0-3.74-1.4A6,6,0,0,0,13,11,13,13,0,0,0,0,24c0,13.15,18,17.21,18,8a5.06,5.06,0,0,0-2.2-4.14c.1-.1.44-.51.51-.61C16.55,26.89,21,28.61,21,33V47a1,1,0,0,0,2,0V33a8,8,0,0,0-6-7.74,3.6,3.6,0,0,0-.46-2.13A10,10,0,0,1,25,33V47a1,1,0,0,0,2,0V32a5,5,0,0,1,4.58-5,5.39,5.39,0,0,0,.62.82A5.05,5.05,0,0,0,30,32c0,9.14,18,5.19,18-8A13,13,0,0,0,35,11ZM2,24C2,13,17,9.54,17,17a4,4,0,0,1-4,4,1,1,0,0,0,0,2,2,2,0,0,1,0,4,1,1,0,0,0,0,2,3,3,0,0,1,3,3C16,38.13,2,34.59,2,24Zm24.05,4.33A11.41,11.41,0,0,0,25,26.38,8.94,8.94,0,0,1,31.54,23a3.72,3.72,0,0,0-.53,2A7,7,0,0,0,26.05,28.33ZM32,32a3,3,0,0,1,3-3,1,1,0,0,0,0-2,2,2,0,0,1,0-4,1,1,0,0,0,0-2,4,4,0,0,1-4-4c0-7.43,15-4.07,15,7C46,34.62,32,38.12,32,32Z"/></g></svg>