<?xml version="1.0" encoding="UTF-8"?>
<!DOCTYPE svg PUBLIC "-//W3C//DTD SVG 1.1//EN" "http://www.w3.org/Graphics/SVG/1.1/DTD/svg11.dtd">
<!-- Creator: CorelDRAW -->
<svg xmlns="http://www.w3.org/2000/svg" xml:space="preserve" width="2048px" height="2048px" style="shape-rendering:geometricPrecision; text-rendering:geometricPrecision; image-rendering:optimizeQuality; fill-rule:evenodd; clip-rule:evenodd"
viewBox="0 0 2048 2048"
 xmlns:xlink="http://www.w3.org/1999/xlink">
 <defs>
  <style type="text/css">
   <![CDATA[
    .fil1 {fill:none}
    .fil0 {fill:#212121;fill-rule:nonzero}
   ]]>
  </style>
 </defs>
 <g id="Layer_x0020_1">
  <metadata id="CorelCorpID_0Corel-Layer"/>
  <path class="fil0" d="M421.692 1740.88l-38.7437 -38.7437c-34.0807,-34.0807 -51.1229,-78.9686 -51.1229,-123.83 0,-44.8607 17.0421,-89.7497 51.1229,-123.83l863.414 -863.412 -0.00236221 -0.00236221c12.4961,-12.4961 32.7591,-12.4961 45.2552,0 3.06378,3.06378 5.37402,6.5941 6.93544,10.3618l160.532 318.601 -28.5 14.3752 28.578 -14.3988c6.50079,12.9036 3.44292,28.1162 -6.5126,37.5839l-783.295 783.296c-34.0796,34.0784 -78.9686,51.1205 -123.832,51.1205 -44.8607,0 -89.7497,-17.041 -123.829,-51.1205zm6.5067 -83.9942l38.7437 38.7437c21.5788,21.5788 50.0681,32.3693 78.5788,32.3693 28.513,0 57.0024,-10.7917 78.5812,-32.3693l767.552 -767.552 -131.274 -260.532 -832.182 832.181c-21.5799,21.5799 -32.3717,50.0693 -32.3717,78.58 0,28.5118 10.7917,57 32.3717,78.58z"/>
  <path class="fil0" d="M1276.5 650.418c-12.4949,12.4949 -12.4949,32.7555 0,45.2504 12.4949,12.4949 32.7555,12.4949 45.2504,0l323.815 -323.814 -18.0118 230.819 -249.743 249.743c-12.4949,12.4949 -12.4949,32.7555 0,45.2504 12.4949,12.4949 32.7555,12.4949 45.2504,0l257.834 -257.834c5.33741,-5.22638 8.87953,-12.3331 9.5067,-20.3646l-31.9028 -2.48977 31.8756 2.3752 25.5449 -327.364c1.18228,-9.463 -1.85669,-19.3536 -9.12166,-26.6185 -12.4961,-12.4961 -32.7591,-12.4961 -45.2552,0l0.00236221 0.00236221 -385.044 385.043z"/>
  <path class="fil0" d="M1117.21 1006.87l-0.279921 -0.282284c-3.56575,-3.48071 -8.26418,-5.22284 -12.9815,-5.22284 -4.78701,0 -9.55158,1.79291 -13.135,5.37638l-0.0011811 0.0011811 -393.384 393.384c-3.58347,3.58347 -5.37638,8.3504 -5.37638,13.1362 0,4.78583 1.79291,9.55276 5.37638,13.1362l0.0011811 0.0011811c3.58347,3.58347 8.3504,5.37638 13.1362,5.37638 4.78583,0 9.55276,-1.79291 13.1362,-5.37638l393.384 -393.384 0.00236221 -0.00236221c3.58229,-3.58229 5.37402,-8.34686 5.37402,-13.1339 0,-4.73268 -1.7504,-9.44174 -5.25237,-13.0099zm45.5504 -44.9469c15.8008,16.0311 23.7036,37.0063 23.7036,57.9567 0,21.137 -8.04095,42.3 -24.1252,58.3843l-0.00236221 0.00236221 -393.384 393.384c-16.0843,16.0843 -37.2473,24.1276 -58.3867,24.1276 -21.1394,0 -42.3036,-8.04331 -58.3867,-24.1276l-0.0011811 -0.0011811c-16.0843,-16.0831 -24.1276,-37.2473 -24.1276,-58.3867 0,-21.1394 8.04331,-42.3024 24.1276,-58.3867l393.384 -393.384 0.0011811 -0.0011811c16.0831,-16.0831 37.2485,-24.1276 58.3855,-24.1276 21.1394,0 42.3024,8.04449 58.3867,24.1276l0.0011811 0.0011811 0.00236221 -0.00236221 0.421654 0.433465zm-45.587 44.9091l-0.0897638 -0.0874016"/>
 </g>
 <rect class="fil1" width="2048" height="2048"/>
</svg>
